<?xml version="1.0" encoding="utf-8"?>
<!-- Generator: Adobe Illustrator 27.9.0, SVG Export Plug-In . SVG Version: 6.00 Build 0)  -->
<svg version="1.1" id="Layer_1" xmlns="http://www.w3.org/2000/svg" xmlns:xlink="http://www.w3.org/1999/xlink" x="0px" y="0px"
	 viewBox="0 0 191.6 33.3" style="enable-background:new 0 0 191.6 33.3;" xml:space="preserve">
<style type="text/css">
	.st0{fill:none;}
	.st1{fill:#6F6F6E;}
	.st2{fill:#FFFFFF;}
</style>
<line class="st0" x1="76.4" y1="4.4" x2="72.9" y2="4.4"/>
<line class="st0" x1="79.8" y1="4.4" x2="76.4" y2="4.4"/>
<line class="st0" x1="83.3" y1="4.4" x2="79.8" y2="4.4"/>
<line class="st0" x1="86.7" y1="4.4" x2="83.3" y2="4.4"/>
<line class="st0" x1="90.1" y1="4.4" x2="86.7" y2="4.4"/>
<line class="st0" x1="93.6" y1="4.4" x2="90.1" y2="4.4"/>
<rect x="72.9" y="4.4" class="st1" width="3.5" height="3.1"/>
<rect x="76.4" y="4.4" class="st2" width="3.5" height="3.1"/>
<rect x="79.8" y="4.4" class="st2" width="3.5" height="3.1"/>
<rect x="83.3" y="4.4" class="st2" width="3.5" height="3.1"/>
<rect x="86.7" y="4.4" class="st2" width="3.5" height="3.1"/>
<rect x="90.1" y="4.4" class="st1" width="3.5" height="3.1"/>
<rect x="72.9" y="7.6" class="st2" width="3.5" height="3.1"/>
<rect x="76.4" y="7.6" class="st1" width="3.5" height="3.1"/>
<rect x="79.8" y="7.6" class="st1" width="3.5" height="3.1"/>
<rect x="83.3" y="7.6" class="st1" width="3.5" height="3.1"/>
<rect x="86.7" y="7.6" class="st1" width="3.5" height="3.1"/>
<rect x="90.1" y="7.6" class="st2" width="3.5" height="3.1"/>
<rect x="72.9" y="10.6" class="st2" width="3.5" height="3.1"/>
<rect x="76.4" y="10.6" class="st1" width="3.5" height="3.1"/>
<rect x="79.8" y="10.6" class="st1" width="3.5" height="3.1"/>
<rect x="83.3" y="10.6" class="st1" width="3.5" height="3.1"/>
<rect x="86.7" y="10.6" class="st1" width="3.5" height="3.1"/>
<rect x="90.1" y="10.6" class="st1" width="3.5" height="3.1"/>
<rect x="73" y="13.8" class="st1" width="3.5" height="3.1"/>
<rect x="76.4" y="13.8" class="st2" width="3.5" height="3.1"/>
<rect x="79.8" y="13.8" class="st2" width="3.5" height="3.1"/>
<rect x="83.3" y="13.8" class="st1" width="3.5" height="3.1"/>
<rect x="86.7" y="13.8" class="st1" width="3.5" height="3.1"/>
<rect x="90.1" y="13.8" class="st1" width="3.5" height="3.1"/>
<rect x="73" y="16.9" class="st1" width="3.5" height="3.1"/>
<rect x="76.4" y="16.9" class="st1" width="3.5" height="3.1"/>
<rect x="79.9" y="16.9" class="st1" width="3.5" height="3.1"/>
<rect x="83.3" y="16.9" class="st2" width="3.5" height="3.1"/>
<rect x="86.7" y="16.9" class="st2" width="3.5" height="3.1"/>
<rect x="90.1" y="16.9" class="st1" width="3.5" height="3.1"/>
<rect x="73" y="20.1" class="st1" width="3.5" height="3.1"/>
<rect x="76.4" y="20.1" class="st1" width="3.5" height="3.1"/>
<rect x="79.9" y="20.1" class="st1" width="3.5" height="3.1"/>
<rect x="83.4" y="20.1" class="st1" width="3.5" height="3.1"/>
<rect x="86.7" y="20.1" class="st1" width="3.5" height="3.1"/>
<rect x="90.1" y="20.1" class="st2" width="3.5" height="3.1"/>
<rect x="72.9" y="23.2" class="st2" width="3.5" height="3.1"/>
<rect x="76.4" y="23.2" class="st1" width="3.5" height="3.1"/>
<rect x="79.8" y="23.2" class="st1" width="3.5" height="3.1"/>
<rect x="83.3" y="23.2" class="st1" width="3.5" height="3.1"/>
<rect x="86.7" y="23.2" class="st1" width="3.5" height="3.1"/>
<rect x="90.1" y="23.2" class="st2" width="3.5" height="3.1"/>
<rect x="72.9" y="26.3" class="st1" width="3.5" height="3.1"/>
<rect x="76.4" y="26.3" class="st2" width="3.5" height="3.1"/>
<rect x="79.8" y="26.3" class="st2" width="3.5" height="3.1"/>
<rect x="83.3" y="26.3" class="st2" width="3.5" height="3.1"/>
<rect x="86.7" y="26.3" class="st2" width="3.5" height="3.1"/>
<rect x="90.1" y="26.3" class="st1" width="3.5" height="3.1"/>
<g>
	<path class="st2" d="M2.5,28.5V4h3.8v11.2L17.5,4h5.3L10.9,15.8l13.6,12.6l-0.2,0.1H19L8.2,18.4l-2,2v8H2.5z"/>
	<path class="st2" d="M24.9,5V4h3.9l13,18.5V4h3.8v23.7v0.6v0.1h-4.1L28.6,10.2v18.3h-3.8C24.9,28.5,24.9,5,24.9,5z"/>
	<path class="st2" d="M47.8,28.6V4h3.8v24.7h-3.8V28.6z"/>
	<path class="st2" d="M71.2,7.9h-6.9v20.8h-3.8V7.9h-7V4.1h17.7C71.2,4.1,71.2,7.9,71.2,7.9z"/>
	<path class="st2" d="M112.8,8h-6.9v20.8h-3.8V8h-7V4.3h17.7V8z"/>
	<path class="st2" d="M132.6,4.3v14.9l-0.1,1.1c-0.4,4.7-4.4,8.4-9.1,8.4c-5.1,0-9.1-4.1-9.1-9.1V4.3h3.8v16.1
		c0.4,2.6,2.6,4.7,5.4,4.7c2.9,0,5.5-2.4,5.5-5.5V4.3H132.6z"/>
	<path class="st2" d="M153.8,16.6c-0.4,7.8-6.2,12.2-15,12.2h-4.1V3.9h6.3c6.9,0.2,12.2,4.2,12.8,10.7
		C153.8,14.7,153.8,16,153.8,16.6z M150.1,16.6c0-4.1-2.1-8.9-10.4-8.9l-1.3,0.1v17.4h0.4c6.4,0,11.4-3,11.4-8.2v-0.3H150.1z"/>
	<path class="st2" d="M155.7,28.6V3.9h3.8v24.7H155.7z"/>
	<path class="st2" d="M165.2,25.2c-2.1-2.3-3.4-5.4-3.4-8.7c0-3.3,1.2-6.3,3.4-8.7c2.2-2.3,5.3-3.6,8.4-3.6c3.1,0,6.1,1.3,8.3,3.6
		c2.2,2.4,3.5,5.5,3.5,8.7c0,3.4-1.2,6.4-3.5,8.7c-2.2,2.4-5.2,3.8-8.3,3.8C170.5,29,167.4,27.7,165.2,25.2z M165.6,16.5
		c0,4.9,3.6,8.7,8,8.7c4.5,0,8.1-3.9,8.1-8.7c0-4.8-3.7-8.6-8.1-8.6C169.2,7.9,165.6,11.7,165.6,16.5z"/>
</g>
</svg>
