<?xml version="1.0" encoding="utf-8"?>
<!-- Generator: Adobe Illustrator 27.9.0, SVG Export Plug-In . SVG Version: 6.00 Build 0)  -->
<svg version="1.1" id="Layer_1" xmlns="http://www.w3.org/2000/svg" xmlns:xlink="http://www.w3.org/1999/xlink" x="0px" y="0px"
	 viewBox="0 0 191.6 33.3" style="enable-background:new 0 0 191.6 33.3;" xml:space="preserve">
<style type="text/css">
	.st0{fill:#708A3A;}
	.st1{fill:#B6C993;}
	.st2{fill:#020203;}
</style>
<line class="st0" x1="79.3" y1="5.5" x2="75.9" y2="5.5"/>
<line class="st0" x1="82.7" y1="5.5" x2="79.3" y2="5.5"/>
<line class="st0" x1="86.1" y1="5.5" x2="82.7" y2="5.5"/>
<line class="st0" x1="89.4" y1="5.5" x2="86.1" y2="5.5"/>
<line class="st0" x1="92.8" y1="5.5" x2="89.4" y2="5.5"/>
<line class="st0" x1="96.2" y1="5.5" x2="92.8" y2="5.5"/>
<rect x="75.9" y="5.5" class="st1" width="3.4" height="3.1"/>
<rect x="79.3" y="5.5" class="st2" width="3.4" height="3.1"/>
<rect x="82.7" y="5.5" class="st2" width="3.4" height="3.1"/>
<rect x="86.1" y="5.5" class="st2" width="3.4" height="3.1"/>
<rect x="89.4" y="5.5" class="st2" width="3.4" height="3.1"/>
<rect x="92.8" y="5.5" class="st1" width="3.4" height="3.1"/>
<rect x="75.9" y="8.6" class="st2" width="3.4" height="3.1"/>
<rect x="79.3" y="8.6" class="st1" width="3.4" height="3.1"/>
<rect x="82.7" y="8.6" class="st1" width="3.4" height="3.1"/>
<rect x="86.1" y="8.6" class="st1" width="3.4" height="3.1"/>
<rect x="89.4" y="8.6" class="st1" width="3.4" height="3.1"/>
<rect x="92.8" y="8.6" class="st2" width="3.4" height="3.1"/>
<rect x="75.9" y="11.6" class="st2" width="3.4" height="3.1"/>
<rect x="79.3" y="11.6" class="st1" width="3.4" height="3.1"/>
<rect x="82.7" y="11.6" class="st1" width="3.4" height="3.1"/>
<rect x="86.1" y="11.6" class="st1" width="3.4" height="3.1"/>
<rect x="89.4" y="11.6" class="st1" width="3.4" height="3.1"/>
<rect x="92.8" y="11.6" class="st1" width="3.4" height="3.1"/>
<rect x="75.9" y="14.7" class="st1" width="3.4" height="3.1"/>
<rect x="79.3" y="14.7" class="st2" width="3.4" height="3.1"/>
<rect x="82.7" y="14.7" class="st2" width="3.4" height="3.1"/>
<rect x="86.1" y="14.7" class="st1" width="3.4" height="3.1"/>
<rect x="89.4" y="14.7" class="st1" width="3.4" height="3.1"/>
<rect x="92.8" y="14.7" class="st1" width="3.4" height="3.1"/>
<rect x="75.9" y="17.8" class="st1" width="3.4" height="3.1"/>
<rect x="79.3" y="17.8" class="st1" width="3.4" height="3.1"/>
<rect x="82.7" y="17.8" class="st1" width="3.4" height="3.1"/>
<rect x="86.1" y="17.8" class="st2" width="3.4" height="3.1"/>
<rect x="89.4" y="17.8" class="st2" width="3.4" height="3.1"/>
<rect x="92.8" y="17.8" class="st1" width="3.4" height="3.1"/>
<rect x="75.9" y="20.9" class="st1" width="3.4" height="3.1"/>
<rect x="79.3" y="20.9" class="st1" width="3.4" height="3.1"/>
<rect x="82.7" y="20.9" class="st1" width="3.4" height="3.1"/>
<rect x="86.1" y="20.9" class="st1" width="3.4" height="3.1"/>
<rect x="89.4" y="20.9" class="st1" width="3.4" height="3.1"/>
<rect x="92.8" y="20.9" class="st2" width="3.4" height="3.1"/>
<rect x="75.9" y="24" class="st2" width="3.4" height="3.1"/>
<rect x="79.3" y="24" class="st1" width="3.4" height="3.1"/>
<rect x="82.7" y="24" class="st1" width="3.4" height="3.1"/>
<rect x="86.1" y="24" class="st1" width="3.4" height="3.1"/>
<rect x="89.4" y="24" class="st1" width="3.4" height="3.1"/>
<rect x="92.8" y="24" class="st2" width="3.4" height="3.1"/>
<rect x="75.9" y="27" class="st1" width="3.4" height="3.1"/>
<rect x="79.3" y="27" class="st2" width="3.4" height="3.1"/>
<rect x="82.7" y="27" class="st2" width="3.4" height="3.1"/>
<rect x="86.1" y="27" class="st2" width="3.4" height="3.1"/>
<rect x="89.4" y="27" class="st2" width="3.4" height="3.1"/>
<rect x="92.8" y="27" class="st1" width="3.4" height="3.1"/>
<g>
	<path class="st2" d="M6.6,29.2V5.1h3.7v11l11-11h5.2L14.8,16.7l13.4,12.4L28,29.2h-5.2l-10.6-9.9l-2,2v7.9H6.6z"/>
	<path class="st2" d="M28.6,6.1v-1h3.8l12.8,18.2V5.1h3.7v23.3V29v0.1h-4L32.3,11.2v18h-3.7V6.1z"/>
	<path class="st2" d="M51.2,29.3V5.1h3.7v24.3H51.2z"/>
	<path class="st2" d="M74.2,8.9h-6.8v20.5h-3.7V8.9h-6.9V5.2h17.4V8.9z"/>
	<path class="st2" d="M115.1,9h-6.8v20.5h-3.7V9h-6.9V5.4h17.4V9z"/>
	<path class="st2" d="M134.6,5.4v14.7l-0.1,1.1c-0.4,4.6-4.3,8.3-9,8.3c-5,0-9-4-9-9V5.4h3.7v15.8c0.4,2.6,2.6,4.6,5.3,4.6
		c2.9,0,5.4-2.4,5.4-5.4V5.4H134.6z"/>
	<path class="st2" d="M155.5,17.5c-0.4,7.7-6.1,12-14.8,12h-4V5h6.2c6.8,0.2,12,4.1,12.6,10.5C155.5,15.6,155.5,16.9,155.5,17.5z
		 M151.8,17.5c0-4-2.1-8.8-10.2-8.8l-1.3,0.1v17.1h0.4c6.3,0,11.2-3,11.2-8.1V17.5z"/>
	<path class="st2" d="M157.4,29.3V5h3.7v24.3H157.4z"/>
	<path class="st2" d="M166.7,26c-2.1-2.3-3.3-5.3-3.3-8.6c0-3.2,1.2-6.2,3.3-8.6c2.2-2.3,5.2-3.5,8.3-3.5s6,1.3,8.2,3.5
		c2.2,2.4,3.4,5.4,3.4,8.6c0,3.3-1.2,6.3-3.4,8.6c-2.2,2.4-5.1,3.7-8.2,3.7S168.9,28.4,166.7,26z M167.1,17.4c0,4.8,3.5,8.6,7.9,8.6
		s8-3.8,8-8.6c0-4.7-3.6-8.5-8-8.5S167.1,12.7,167.1,17.4z"/>
</g>
</svg>
