<?xml version="1.0" encoding="utf-8"?>
<!-- Generator: Adobe Illustrator 27.9.0, SVG Export Plug-In . SVG Version: 6.00 Build 0)  -->
<svg version="1.1" id="Layer_1" xmlns="http://www.w3.org/2000/svg" xmlns:xlink="http://www.w3.org/1999/xlink" x="0px" y="0px"
	 viewBox="0 0 191.6 33.3" style="enable-background:new 0 0 191.6 33.3;" xml:space="preserve">
<style type="text/css">
	.st0{fill:none;}
	.st1{fill:#B1B1B1;}
	.st2{fill:#3C3C3B;}
</style>
<line class="st0" x1="78.6" y1="4.2" x2="75.1" y2="4.2"/>
<line class="st0" x1="82.1" y1="4.2" x2="78.6" y2="4.2"/>
<line class="st0" x1="85.6" y1="4.2" x2="82.1" y2="4.2"/>
<line class="st0" x1="89" y1="4.2" x2="85.6" y2="4.2"/>
<line class="st0" x1="92.5" y1="4.2" x2="89" y2="4.2"/>
<line class="st0" x1="96" y1="4.2" x2="92.5" y2="4.2"/>
<rect x="75.1" y="4.2" class="st1" width="3.5" height="3.2"/>
<rect x="78.6" y="4.2" class="st2" width="3.5" height="3.2"/>
<rect x="82.1" y="4.2" class="st2" width="3.5" height="3.2"/>
<rect x="85.6" y="4.2" class="st2" width="3.5" height="3.2"/>
<rect x="89" y="4.2" class="st2" width="3.5" height="3.2"/>
<rect x="92.5" y="4.2" class="st1" width="3.5" height="3.2"/>
<rect x="75.1" y="7.4" class="st2" width="3.5" height="3.2"/>
<rect x="78.6" y="7.4" class="st1" width="3.5" height="3.2"/>
<rect x="82.1" y="7.4" class="st1" width="3.5" height="3.2"/>
<rect x="85.6" y="7.4" class="st1" width="3.5" height="3.2"/>
<rect x="89" y="7.4" class="st1" width="3.5" height="3.2"/>
<rect x="92.5" y="7.4" class="st2" width="3.5" height="3.2"/>
<rect x="75.1" y="10.5" class="st2" width="3.5" height="3.2"/>
<rect x="78.6" y="10.5" class="st1" width="3.5" height="3.2"/>
<rect x="82.1" y="10.5" class="st1" width="3.5" height="3.2"/>
<rect x="85.6" y="10.5" class="st1" width="3.5" height="3.2"/>
<rect x="89" y="10.5" class="st1" width="3.5" height="3.2"/>
<rect x="92.5" y="10.5" class="st1" width="3.5" height="3.2"/>
<rect x="75.1" y="13.7" class="st1" width="3.5" height="3.2"/>
<rect x="78.6" y="13.7" class="st2" width="3.5" height="3.2"/>
<rect x="82.1" y="13.7" class="st2" width="3.5" height="3.2"/>
<rect x="85.6" y="13.7" class="st1" width="3.5" height="3.2"/>
<rect x="89" y="13.7" class="st1" width="3.5" height="3.2"/>
<rect x="92.5" y="13.7" class="st1" width="3.5" height="3.2"/>
<rect x="75.1" y="16.9" class="st1" width="3.5" height="3.2"/>
<rect x="78.6" y="16.9" class="st1" width="3.5" height="3.2"/>
<rect x="82.1" y="16.9" class="st1" width="3.5" height="3.2"/>
<rect x="85.6" y="16.9" class="st2" width="3.5" height="3.2"/>
<rect x="89" y="16.9" class="st2" width="3.5" height="3.2"/>
<rect x="92.5" y="16.9" class="st1" width="3.5" height="3.2"/>
<rect x="75.1" y="20.1" class="st1" width="3.5" height="3.2"/>
<rect x="78.6" y="20.1" class="st1" width="3.5" height="3.2"/>
<rect x="82.1" y="20.1" class="st1" width="3.5" height="3.2"/>
<rect x="85.6" y="20.1" class="st1" width="3.5" height="3.2"/>
<rect x="89" y="20.1" class="st1" width="3.5" height="3.2"/>
<rect x="92.5" y="20.1" class="st2" width="3.5" height="3.2"/>
<rect x="75.1" y="23.3" class="st2" width="3.5" height="3.2"/>
<rect x="78.6" y="23.3" class="st1" width="3.5" height="3.2"/>
<rect x="82.1" y="23.3" class="st1" width="3.5" height="3.2"/>
<rect x="85.6" y="23.3" class="st1" width="3.5" height="3.2"/>
<rect x="89" y="23.3" class="st1" width="3.5" height="3.2"/>
<rect x="92.5" y="23.3" class="st2" width="3.5" height="3.2"/>
<rect x="75.1" y="26.4" class="st1" width="3.5" height="3.2"/>
<rect x="78.6" y="26.4" class="st2" width="3.5" height="3.2"/>
<rect x="82.1" y="26.4" class="st2" width="3.5" height="3.2"/>
<rect x="85.6" y="26.4" class="st2" width="3.5" height="3.2"/>
<rect x="89" y="26.4" class="st2" width="3.5" height="3.2"/>
<rect x="92.5" y="26.4" class="st1" width="3.5" height="3.2"/>
<g>
	<path class="st2" d="M3.5,28.6V3.8h3.8v11.4L18.7,3.8h5.4L12,15.7l13.8,12.8l-0.2,0.1h-5.4L9.3,18.4l-2.1,2.1v8.2H3.5z"/>
	<path class="st2" d="M26.3,4.8v-1h3.9l13.2,18.8V3.8h3.8v24v0.6v0.1h-4.1l-13-18.5v18.6h-3.8C26.3,28.6,26.3,4.8,26.3,4.8z"/>
	<path class="st2" d="M49.6,28.8v-25h3.8v25.1h-3.8V28.8z"/>
	<path class="st2" d="M73.3,7.7h-7v21.2h-3.8V7.7h-7.1V3.9h18C73.3,3.9,73.3,7.7,73.3,7.7z"/>
	<path class="st2" d="M115.5,7.8h-7V29h-3.8V7.8h-7.1V4.1h18V7.8z"/>
	<path class="st2" d="M135.6,4.1v15.2l-0.1,1.1c-0.4,4.7-4.4,8.6-9.3,8.6c-5.2,0-9.3-4.1-9.3-9.3V4.1h3.8v16.3
		c0.4,2.7,2.7,4.7,5.5,4.7c3,0,5.6-2.5,5.6-5.6V4.1H135.6z"/>
	<path class="st2" d="M157.2,16.6c-0.4,7.9-6.3,12.4-15.3,12.4h-4.1V3.7h6.4c7,0.2,12.4,4.2,13,10.8C157.2,14.6,157.2,16,157.2,16.6
		z M153.4,16.6c0-4.1-2.2-9.1-10.5-9.1l-1.3,0.1v17.6h0.4c6.5,0,11.6-3.1,11.6-8.4v-0.3H153.4z"/>
	<path class="st2" d="M159.2,28.8V3.7h3.8v25.1H159.2z"/>
	<path class="st2" d="M168.8,25.3c-2.2-2.4-3.4-5.5-3.4-8.9c0-3.3,1.2-6.4,3.4-8.9c2.3-2.4,5.4-3.6,8.6-3.6c3.2,0,6.2,1.3,8.5,3.6
		c2.3,2.5,3.5,5.6,3.5,8.9c0,3.4-1.2,6.5-3.5,8.9c-2.3,2.5-5.3,3.8-8.5,3.8C174.1,29.2,171,27.8,168.8,25.3z M169.2,16.5
		c0,5,3.6,8.9,8.2,8.9c4.5,0,8.3-3.9,8.3-8.9c0-4.9-3.7-8.8-8.3-8.8C172.8,7.7,169.2,11.6,169.2,16.5z"/>
</g>
</svg>
